<?xml version="1.0" encoding="utf-8" standalone="no"?>
<!DOCTYPE svg PUBLIC "-//W3C//DTD SVG 1.1//EN"
  "http://www.w3.org/Graphics/SVG/1.1/DTD/svg11.dtd">
<svg xmlns:xlink="http://www.w3.org/1999/xlink" width="548.39952pt" height="368.39952pt" viewBox="0 0 548.39952 368.39952" xmlns="http://www.w3.org/2000/svg" version="1.1">
 <metadata>
  <rdf:RDF xmlns:dc="http://purl.org/dc/elements/1.1/" xmlns:cc="http://creativecommons.org/ns#" xmlns:rdf="http://www.w3.org/1999/02/22-rdf-syntax-ns#">
   <cc:Work>
    <dc:type rdf:resource="http://purl.org/dc/dcmitype/StillImage"/>
    <dc:date>2026-09-27T04:37:52.691428</dc:date>
    <dc:format>image/svg+xml</dc:format>
    <dc:creator>
     <cc:Agent>
      <dc:title>Matplotlib v3.10.8, https://matplotlib.org/</dc:title>
     </cc:Agent>
    </dc:creator>
   </cc:Work>
  </rdf:RDF>
 </metadata>
 <defs>
  <style type="text/css">*{stroke-linejoin: round; stroke-linecap: butt}</style>
 </defs>
 <g id="figure_1">
  <g id="patch_1">
   <path d="M 0 368.39952 
L 548.39952 368.39952 
L 548.39952 0 
L 0 0 
z
" style="fill: #ffffff"/>
  </g>
  <g id="axes_1">
   <g id="patch_2">
    <path d="M 51.455625 325.036395 
L 541.19952 325.036395 
L 541.19952 25.053562 
L 51.455625 25.053562 
z
" style="fill: #ffffff"/>
   </g>
   <g id="matplotlib.axis_1">
    <g id="xtick_1">
     <g id="line2d_1">
      <path d="M 73.716711 325.036395 
L 73.716711 25.053562 
" clip-path="url(#pd28fb046a6)" style="fill: none; stroke: #b0b0b0; stroke-opacity: 0.25; stroke-width: 0.8; stroke-linecap: square"/>
     </g>
     <g id="line2d_2">
      <defs>
       <path id="m8cf57a6bbc" d="M 0 0 
L 0 3.5 
" style="stroke: #000000; stroke-width: 0.8"/>
      </defs>
      <g>
       <use xlink:href="#m8cf57a6bbc" x="73.716711" y="325.036395" style="stroke: #000000; stroke-width: 0.8"/>
      </g>
     </g>
     <g id="text_1">
      <text style="font-size: 13px; font-family: 'DejaVu Sans'; text-anchor: middle" x="73.716711" y="341.914364" transform="rotate(-0 73.716711 341.914364)">0</text>
     </g>
    </g>
    <g id="xtick_2">
     <g id="line2d_3">
      <path d="M 174.903466 325.036395 
L 174.903466 25.053562 
" clip-path="url(#pd28fb046a6)" style="fill: none; stroke: #b0b0b0; stroke-opacity: 0.25; stroke-width: 0.8; stroke-linecap: square"/>
     </g>
     <g id="line2d_4">
      <g>
       <use xlink:href="#m8cf57a6bbc" x="174.903466" y="325.036395" style="stroke: #000000; stroke-width: 0.8"/>
      </g>
     </g>
     <g id="text_2">
      <text style="font-size: 13px; font-family: 'DejaVu Sans'; text-anchor: middle" x="174.903466" y="341.914364" transform="rotate(-0 174.903466 341.914364)">5</text>
     </g>
    </g>
    <g id="xtick_3">
     <g id="line2d_5">
      <path d="M 276.090221 325.036395 
L 276.090221 25.053562 
" clip-path="url(#pd28fb046a6)" style="fill: none; stroke: #b0b0b0; stroke-opacity: 0.25; stroke-width: 0.8; stroke-linecap: square"/>
     </g>
     <g id="line2d_6">
      <g>
       <use xlink:href="#m8cf57a6bbc" x="276.090221" y="325.036395" style="stroke: #000000; stroke-width: 0.8"/>
      </g>
     </g>
     <g id="text_3">
      <text style="font-size: 13px; font-family: 'DejaVu Sans'; text-anchor: middle" x="276.090221" y="341.914364" transform="rotate(-0 276.090221 341.914364)">10</text>
     </g>
    </g>
    <g id="xtick_4">
     <g id="line2d_7">
      <path d="M 377.276977 325.036395 
L 377.276977 25.053562 
" clip-path="url(#pd28fb046a6)" style="fill: none; stroke: #b0b0b0; stroke-opacity: 0.25; stroke-width: 0.8; stroke-linecap: square"/>
     </g>
     <g id="line2d_8">
      <g>
       <use xlink:href="#m8cf57a6bbc" x="377.276977" y="325.036395" style="stroke: #000000; stroke-width: 0.8"/>
      </g>
     </g>
     <g id="text_4">
      <text style="font-size: 13px; font-family: 'DejaVu Sans'; text-anchor: middle" x="377.276977" y="341.914364" transform="rotate(-0 377.276977 341.914364)">15</text>
     </g>
    </g>
    <g id="xtick_5">
     <g id="line2d_9">
      <path d="M 478.463732 325.036395 
L 478.463732 25.053562 
" clip-path="url(#pd28fb046a6)" style="fill: none; stroke: #b0b0b0; stroke-opacity: 0.25; stroke-width: 0.8; stroke-linecap: square"/>
     </g>
     <g id="line2d_10">
      <g>
       <use xlink:href="#m8cf57a6bbc" x="478.463732" y="325.036395" style="stroke: #000000; stroke-width: 0.8"/>
      </g>
     </g>
     <g id="text_5">
      <text style="font-size: 13px; font-family: 'DejaVu Sans'; text-anchor: middle" x="478.463732" y="341.914364" transform="rotate(-0 478.463732 341.914364)">20</text>
     </g>
    </g>
    <g id="text_6">
     <text style="font-size: 13px; font-family: 'DejaVu Sans'; text-anchor: middle" x="296.327572" y="358.495926" transform="rotate(-0 296.327572 358.495926)">Displacement radius (100-unit bins)</text>
    </g>
   </g>
   <g id="matplotlib.axis_2">
    <g id="ytick_1">
     <g id="line2d_11">
      <path d="M 51.455625 298.950931 
L 541.19952 298.950931 
" clip-path="url(#pd28fb046a6)" style="fill: none; stroke: #b0b0b0; stroke-opacity: 0.25; stroke-width: 0.8; stroke-linecap: square"/>
     </g>
     <g id="line2d_12">
      <defs>
       <path id="m3521596851" d="M 0 0 
L -3.5 0 
" style="stroke: #000000; stroke-width: 0.8"/>
      </defs>
      <g>
       <use xlink:href="#m3521596851" x="51.455625" y="298.950931" style="stroke: #000000; stroke-width: 0.8"/>
      </g>
     </g>
     <g id="text_7">
      <text style="font-size: 13px; font-family: 'DejaVu Sans'; text-anchor: end" x="44.455625" y="303.889916" transform="rotate(-0 44.455625 303.889916)">0.0</text>
     </g>
    </g>
    <g id="ytick_2">
     <g id="line2d_13">
      <path d="M 51.455625 246.780004 
L 541.19952 246.780004 
" clip-path="url(#pd28fb046a6)" style="fill: none; stroke: #b0b0b0; stroke-opacity: 0.25; stroke-width: 0.8; stroke-linecap: square"/>
     </g>
     <g id="line2d_14">
      <g>
       <use xlink:href="#m3521596851" x="51.455625" y="246.780004" style="stroke: #000000; stroke-width: 0.8"/>
      </g>
     </g>
     <g id="text_8">
      <text style="font-size: 13px; font-family: 'DejaVu Sans'; text-anchor: end" x="44.455625" y="251.718988" transform="rotate(-0 44.455625 251.718988)">0.2</text>
     </g>
    </g>
    <g id="ytick_3">
     <g id="line2d_15">
      <path d="M 51.455625 194.609077 
L 541.19952 194.609077 
" clip-path="url(#pd28fb046a6)" style="fill: none; stroke: #b0b0b0; stroke-opacity: 0.25; stroke-width: 0.8; stroke-linecap: square"/>
     </g>
     <g id="line2d_16">
      <g>
       <use xlink:href="#m3521596851" x="51.455625" y="194.609077" style="stroke: #000000; stroke-width: 0.8"/>
      </g>
     </g>
     <g id="text_9">
      <text style="font-size: 13px; font-family: 'DejaVu Sans'; text-anchor: end" x="44.455625" y="199.548061" transform="rotate(-0 44.455625 199.548061)">0.4</text>
     </g>
    </g>
    <g id="ytick_4">
     <g id="line2d_17">
      <path d="M 51.455625 142.438149 
L 541.19952 142.438149 
" clip-path="url(#pd28fb046a6)" style="fill: none; stroke: #b0b0b0; stroke-opacity: 0.25; stroke-width: 0.8; stroke-linecap: square"/>
     </g>
     <g id="line2d_18">
      <g>
       <use xlink:href="#m3521596851" x="51.455625" y="142.438149" style="stroke: #000000; stroke-width: 0.8"/>
      </g>
     </g>
     <g id="text_10">
      <text style="font-size: 13px; font-family: 'DejaVu Sans'; text-anchor: end" x="44.455625" y="147.377134" transform="rotate(-0 44.455625 147.377134)">0.6</text>
     </g>
    </g>
    <g id="ytick_5">
     <g id="line2d_19">
      <path d="M 51.455625 90.267222 
L 541.19952 90.267222 
" clip-path="url(#pd28fb046a6)" style="fill: none; stroke: #b0b0b0; stroke-opacity: 0.25; stroke-width: 0.8; stroke-linecap: square"/>
     </g>
     <g id="line2d_20">
      <g>
       <use xlink:href="#m3521596851" x="51.455625" y="90.267222" style="stroke: #000000; stroke-width: 0.8"/>
      </g>
     </g>
     <g id="text_11">
      <text style="font-size: 13px; font-family: 'DejaVu Sans'; text-anchor: end" x="44.455625" y="95.206206" transform="rotate(-0 44.455625 95.206206)">0.8</text>
     </g>
    </g>
    <g id="ytick_6">
     <g id="line2d_21">
      <path d="M 51.455625 38.096294 
L 541.19952 38.096294 
" clip-path="url(#pd28fb046a6)" style="fill: none; stroke: #b0b0b0; stroke-opacity: 0.25; stroke-width: 0.8; stroke-linecap: square"/>
     </g>
     <g id="line2d_22">
      <g>
       <use xlink:href="#m3521596851" x="51.455625" y="38.096294" style="stroke: #000000; stroke-width: 0.8"/>
      </g>
     </g>
     <g id="text_12">
      <text style="font-size: 13px; font-family: 'DejaVu Sans'; text-anchor: end" x="44.455625" y="43.035279" transform="rotate(-0 44.455625 43.035279)">1.0</text>
     </g>
    </g>
    <g id="text_13">
     <text style="font-size: 13px; font-family: 'DejaVu Sans'; text-anchor: middle" x="17.077969" y="175.044979" transform="rotate(-90 17.077969 175.044979)">Population-vector correlation</text>
    </g>
   </g>
   <g id="line2d_23">
    <path d="M 73.716711 38.096294 
L 93.954062 95.188565 
L 114.191413 99.134203 
L 134.428764 102.885489 
L 154.666115 103.762809 
L 174.903466 104.820238 
L 195.140817 109.044935 
L 215.378168 110.056932 
L 235.615519 108.759222 
L 255.85287 109.41299 
L 276.090221 106.048635 
L 296.327572 106.514225 
L 316.564924 102.672464 
L 336.802275 105.342143 
L 357.039626 111.095782 
L 377.276977 116.846125 
L 397.514328 125.344758 
L 417.751679 132.729879 
L 437.98903 107.126013 
L 458.226381 102.002743 
L 478.463732 119.136165 
L 498.701083 98.172628 
L 518.938434 99.789946 
" clip-path="url(#pd28fb046a6)" style="fill: none; stroke: #1f77b4; stroke-width: 1.5; stroke-linecap: square"/>
    <defs>
     <path id="ma625f0bab1" d="M 0 3 
C 0.795609 3 1.55874 2.683901 2.12132 2.12132 
C 2.683901 1.55874 3 0.795609 3 0 
C 3 -0.795609 2.683901 -1.55874 2.12132 -2.12132 
C 1.55874 -2.683901 0.795609 -3 0 -3 
C -0.795609 -3 -1.55874 -2.683901 -2.12132 -2.12132 
C -2.683901 -1.55874 -3 -0.795609 -3 0 
C -3 0.795609 -2.683901 1.55874 -2.12132 2.12132 
C -1.55874 2.683901 -0.795609 3 0 3 
z
" style="stroke: #1f77b4"/>
    </defs>
    <g clip-path="url(#pd28fb046a6)">
     <use xlink:href="#ma625f0bab1" x="73.716711" y="38.096294" style="fill: #1f77b4; stroke: #1f77b4"/>
     <use xlink:href="#ma625f0bab1" x="93.954062" y="95.188565" style="fill: #1f77b4; stroke: #1f77b4"/>
     <use xlink:href="#ma625f0bab1" x="114.191413" y="99.134203" style="fill: #1f77b4; stroke: #1f77b4"/>
     <use xlink:href="#ma625f0bab1" x="134.428764" y="102.885489" style="fill: #1f77b4; stroke: #1f77b4"/>
     <use xlink:href="#ma625f0bab1" x="154.666115" y="103.762809" style="fill: #1f77b4; stroke: #1f77b4"/>
     <use xlink:href="#ma625f0bab1" x="174.903466" y="104.820238" style="fill: #1f77b4; stroke: #1f77b4"/>
     <use xlink:href="#ma625f0bab1" x="195.140817" y="109.044935" style="fill: #1f77b4; stroke: #1f77b4"/>
     <use xlink:href="#ma625f0bab1" x="215.378168" y="110.056932" style="fill: #1f77b4; stroke: #1f77b4"/>
     <use xlink:href="#ma625f0bab1" x="235.615519" y="108.759222" style="fill: #1f77b4; stroke: #1f77b4"/>
     <use xlink:href="#ma625f0bab1" x="255.85287" y="109.41299" style="fill: #1f77b4; stroke: #1f77b4"/>
     <use xlink:href="#ma625f0bab1" x="276.090221" y="106.048635" style="fill: #1f77b4; stroke: #1f77b4"/>
     <use xlink:href="#ma625f0bab1" x="296.327572" y="106.514225" style="fill: #1f77b4; stroke: #1f77b4"/>
     <use xlink:href="#ma625f0bab1" x="316.564924" y="102.672464" style="fill: #1f77b4; stroke: #1f77b4"/>
     <use xlink:href="#ma625f0bab1" x="336.802275" y="105.342143" style="fill: #1f77b4; stroke: #1f77b4"/>
     <use xlink:href="#ma625f0bab1" x="357.039626" y="111.095782" style="fill: #1f77b4; stroke: #1f77b4"/>
     <use xlink:href="#ma625f0bab1" x="377.276977" y="116.846125" style="fill: #1f77b4; stroke: #1f77b4"/>
     <use xlink:href="#ma625f0bab1" x="397.514328" y="125.344758" style="fill: #1f77b4; stroke: #1f77b4"/>
     <use xlink:href="#ma625f0bab1" x="417.751679" y="132.729879" style="fill: #1f77b4; stroke: #1f77b4"/>
     <use xlink:href="#ma625f0bab1" x="437.98903" y="107.126013" style="fill: #1f77b4; stroke: #1f77b4"/>
     <use xlink:href="#ma625f0bab1" x="458.226381" y="102.002743" style="fill: #1f77b4; stroke: #1f77b4"/>
     <use xlink:href="#ma625f0bab1" x="478.463732" y="119.136165" style="fill: #1f77b4; stroke: #1f77b4"/>
     <use xlink:href="#ma625f0bab1" x="498.701083" y="98.172628" style="fill: #1f77b4; stroke: #1f77b4"/>
     <use xlink:href="#ma625f0bab1" x="518.938434" y="99.789946" style="fill: #1f77b4; stroke: #1f77b4"/>
    </g>
   </g>
   <g id="line2d_24">
    <path d="M 73.716711 38.096294 
L 93.954062 133.30911 
L 114.191413 144.204801 
L 134.428764 146.327699 
L 154.666115 149.84979 
L 174.903466 153.124867 
L 195.140817 154.00553 
L 215.378168 155.768006 
L 235.615519 155.052744 
L 255.85287 153.642294 
L 276.090221 155.0566 
L 296.327572 155.963834 
L 316.564924 153.854915 
L 336.802275 152.002229 
L 357.039626 152.998227 
L 377.276977 154.322883 
L 397.514328 156.951764 
L 417.751679 163.683863 
L 437.98903 159.800744 
L 458.226381 135.564571 
L 478.463732 124.208297 
L 498.701083 101.526363 
L 518.938434 94.768641 
" clip-path="url(#pd28fb046a6)" style="fill: none; stroke: #ff7f0e; stroke-width: 1.5; stroke-linecap: square"/>
    <defs>
     <path id="mcb5bd1db21" d="M 0 3 
C 0.795609 3 1.55874 2.683901 2.12132 2.12132 
C 2.683901 1.55874 3 0.795609 3 0 
C 3 -0.795609 2.683901 -1.55874 2.12132 -2.12132 
C 1.55874 -2.683901 0.795609 -3 0 -3 
C -0.795609 -3 -1.55874 -2.683901 -2.12132 -2.12132 
C -2.683901 -1.55874 -3 -0.795609 -3 0 
C -3 0.795609 -2.683901 1.55874 -2.12132 2.12132 
C -1.55874 2.683901 -0.795609 3 0 3 
z
" style="stroke: #ff7f0e"/>
    </defs>
    <g clip-path="url(#pd28fb046a6)">
     <use xlink:href="#mcb5bd1db21" x="73.716711" y="38.096294" style="fill: #ff7f0e; stroke: #ff7f0e"/>
     <use xlink:href="#mcb5bd1db21" x="93.954062" y="133.30911" style="fill: #ff7f0e; stroke: #ff7f0e"/>
     <use xlink:href="#mcb5bd1db21" x="114.191413" y="144.204801" style="fill: #ff7f0e; stroke: #ff7f0e"/>
     <use xlink:href="#mcb5bd1db21" x="134.428764" y="146.327699" style="fill: #ff7f0e; stroke: #ff7f0e"/>
     <use xlink:href="#mcb5bd1db21" x="154.666115" y="149.84979" style="fill: #ff7f0e; stroke: #ff7f0e"/>
     <use xlink:href="#mcb5bd1db21" x="174.903466" y="153.124867" style="fill: #ff7f0e; stroke: #ff7f0e"/>
     <use xlink:href="#mcb5bd1db21" x="195.140817" y="154.00553" style="fill: #ff7f0e; stroke: #ff7f0e"/>
     <use xlink:href="#mcb5bd1db21" x="215.378168" y="155.768006" style="fill: #ff7f0e; stroke: #ff7f0e"/>
     <use xlink:href="#mcb5bd1db21" x="235.615519" y="155.052744" style="fill: #ff7f0e; stroke: #ff7f0e"/>
     <use xlink:href="#mcb5bd1db21" x="255.85287" y="153.642294" style="fill: #ff7f0e; stroke: #ff7f0e"/>
     <use xlink:href="#mcb5bd1db21" x="276.090221" y="155.0566" style="fill: #ff7f0e; stroke: #ff7f0e"/>
     <use xlink:href="#mcb5bd1db21" x="296.327572" y="155.963834" style="fill: #ff7f0e; stroke: #ff7f0e"/>
     <use xlink:href="#mcb5bd1db21" x="316.564924" y="153.854915" style="fill: #ff7f0e; stroke: #ff7f0e"/>
     <use xlink:href="#mcb5bd1db21" x="336.802275" y="152.002229" style="fill: #ff7f0e; stroke: #ff7f0e"/>
     <use xlink:href="#mcb5bd1db21" x="357.039626" y="152.998227" style="fill: #ff7f0e; stroke: #ff7f0e"/>
     <use xlink:href="#mcb5bd1db21" x="377.276977" y="154.322883" style="fill: #ff7f0e; stroke: #ff7f0e"/>
     <use xlink:href="#mcb5bd1db21" x="397.514328" y="156.951764" style="fill: #ff7f0e; stroke: #ff7f0e"/>
     <use xlink:href="#mcb5bd1db21" x="417.751679" y="163.683863" style="fill: #ff7f0e; stroke: #ff7f0e"/>
     <use xlink:href="#mcb5bd1db21" x="437.98903" y="159.800744" style="fill: #ff7f0e; stroke: #ff7f0e"/>
     <use xlink:href="#mcb5bd1db21" x="458.226381" y="135.564571" style="fill: #ff7f0e; stroke: #ff7f0e"/>
     <use xlink:href="#mcb5bd1db21" x="478.463732" y="124.208297" style="fill: #ff7f0e; stroke: #ff7f0e"/>
     <use xlink:href="#mcb5bd1db21" x="498.701083" y="101.526363" style="fill: #ff7f0e; stroke: #ff7f0e"/>
     <use xlink:href="#mcb5bd1db21" x="518.938434" y="94.768641" style="fill: #ff7f0e; stroke: #ff7f0e"/>
    </g>
   </g>
   <g id="line2d_25">
    <path d="M 73.716711 38.096294 
L 93.954062 64.316256 
L 114.191413 70.807732 
L 134.428764 73.94314 
L 154.666115 76.234813 
L 174.903466 77.724947 
L 195.140817 79.025892 
L 215.378168 80.758422 
L 235.615519 81.149318 
L 255.85287 80.555115 
L 276.090221 79.674794 
L 296.327572 79.991634 
L 316.564924 79.906726 
L 336.802275 79.147152 
L 357.039626 80.099041 
L 377.276977 80.950426 
L 397.514328 81.974303 
L 417.751679 84.029473 
L 437.98903 80.24765 
L 458.226381 68.952542 
L 478.463732 63.356873 
L 498.701083 53.923018 
L 518.938434 51.141408 
" clip-path="url(#pd28fb046a6)" style="fill: none; stroke: #2ca02c; stroke-width: 1.5; stroke-linecap: square"/>
    <defs>
     <path id="m8317b1883c" d="M 0 3 
C 0.795609 3 1.55874 2.683901 2.12132 2.12132 
C 2.683901 1.55874 3 0.795609 3 0 
C 3 -0.795609 2.683901 -1.55874 2.12132 -2.12132 
C 1.55874 -2.683901 0.795609 -3 0 -3 
C -0.795609 -3 -1.55874 -2.683901 -2.12132 -2.12132 
C -2.683901 -1.55874 -3 -0.795609 -3 0 
C -3 0.795609 -2.683901 1.55874 -2.12132 2.12132 
C -1.55874 2.683901 -0.795609 3 0 3 
z
" style="stroke: #2ca02c"/>
    </defs>
    <g clip-path="url(#pd28fb046a6)">
     <use xlink:href="#m8317b1883c" x="73.716711" y="38.096294" style="fill: #2ca02c; stroke: #2ca02c"/>
     <use xlink:href="#m8317b1883c" x="93.954062" y="64.316256" style="fill: #2ca02c; stroke: #2ca02c"/>
     <use xlink:href="#m8317b1883c" x="114.191413" y="70.807732" style="fill: #2ca02c; stroke: #2ca02c"/>
     <use xlink:href="#m8317b1883c" x="134.428764" y="73.94314" style="fill: #2ca02c; stroke: #2ca02c"/>
     <use xlink:href="#m8317b1883c" x="154.666115" y="76.234813" style="fill: #2ca02c; stroke: #2ca02c"/>
     <use xlink:href="#m8317b1883c" x="174.903466" y="77.724947" style="fill: #2ca02c; stroke: #2ca02c"/>
     <use xlink:href="#m8317b1883c" x="195.140817" y="79.025892" style="fill: #2ca02c; stroke: #2ca02c"/>
     <use xlink:href="#m8317b1883c" x="215.378168" y="80.758422" style="fill: #2ca02c; stroke: #2ca02c"/>
     <use xlink:href="#m8317b1883c" x="235.615519" y="81.149318" style="fill: #2ca02c; stroke: #2ca02c"/>
     <use xlink:href="#m8317b1883c" x="255.85287" y="80.555115" style="fill: #2ca02c; stroke: #2ca02c"/>
     <use xlink:href="#m8317b1883c" x="276.090221" y="79.674794" style="fill: #2ca02c; stroke: #2ca02c"/>
     <use xlink:href="#m8317b1883c" x="296.327572" y="79.991634" style="fill: #2ca02c; stroke: #2ca02c"/>
     <use xlink:href="#m8317b1883c" x="316.564924" y="79.906726" style="fill: #2ca02c; stroke: #2ca02c"/>
     <use xlink:href="#m8317b1883c" x="336.802275" y="79.147152" style="fill: #2ca02c; stroke: #2ca02c"/>
     <use xlink:href="#m8317b1883c" x="357.039626" y="80.099041" style="fill: #2ca02c; stroke: #2ca02c"/>
     <use xlink:href="#m8317b1883c" x="377.276977" y="80.950426" style="fill: #2ca02c; stroke: #2ca02c"/>
     <use xlink:href="#m8317b1883c" x="397.514328" y="81.974303" style="fill: #2ca02c; stroke: #2ca02c"/>
     <use xlink:href="#m8317b1883c" x="417.751679" y="84.029473" style="fill: #2ca02c; stroke: #2ca02c"/>
     <use xlink:href="#m8317b1883c" x="437.98903" y="80.24765" style="fill: #2ca02c; stroke: #2ca02c"/>
     <use xlink:href="#m8317b1883c" x="458.226381" y="68.952542" style="fill: #2ca02c; stroke: #2ca02c"/>
     <use xlink:href="#m8317b1883c" x="478.463732" y="63.356873" style="fill: #2ca02c; stroke: #2ca02c"/>
     <use xlink:href="#m8317b1883c" x="498.701083" y="53.923018" style="fill: #2ca02c; stroke: #2ca02c"/>
     <use xlink:href="#m8317b1883c" x="518.938434" y="51.141408" style="fill: #2ca02c; stroke: #2ca02c"/>
    </g>
   </g>
   <g id="patch_3">
    <path d="M 51.455625 325.036395 
L 51.455625 25.053562 
" style="fill: none; stroke: #000000; stroke-width: 0.8; stroke-linejoin: miter; stroke-linecap: square"/>
   </g>
   <g id="patch_4">
    <path d="M 541.19952 325.036395 
L 541.19952 25.053562 
" style="fill: none; stroke: #000000; stroke-width: 0.8; stroke-linejoin: miter; stroke-linecap: square"/>
   </g>
   <g id="patch_5">
    <path d="M 51.455625 325.036395 
L 541.19952 325.036395 
" style="fill: none; stroke: #000000; stroke-width: 0.8; stroke-linejoin: miter; stroke-linecap: square"/>
   </g>
   <g id="patch_6">
    <path d="M 51.455625 25.053562 
L 541.19952 25.053562 
" style="fill: none; stroke: #000000; stroke-width: 0.8; stroke-linejoin: miter; stroke-linecap: square"/>
   </g>
   <g id="text_14">
    <text style="font-size: 15.6px; font-family: 'DejaVu Sans'; text-anchor: middle" x="296.327572" y="19.053562" transform="rotate(-0 296.327572 19.053562)">Radial spatial-kernel profile</text>
   </g>
   <g id="legend_1">
    <g id="patch_7">
     <path d="M 60.555625 318.536395 
L 168.995937 318.536395 
Q 171.595937 318.536395 171.595937 315.936395 
L 171.595937 259.991707 
Q 171.595937 257.391707 168.995937 257.391707 
L 60.555625 257.391707 
Q 57.955625 257.391707 57.955625 259.991707 
L 57.955625 315.936395 
Q 57.955625 318.536395 60.555625 318.536395 
z
" style="fill: #ffffff; opacity: 0.8; stroke: #cccccc; stroke-linejoin: miter"/>
    </g>
    <g id="line2d_26">
     <path d="M 63.155625 267.919676 
L 76.155625 267.919676 
L 89.155625 267.919676 
" style="fill: none; stroke: #1f77b4; stroke-width: 1.5; stroke-linecap: square"/>
     <g>
      <use xlink:href="#ma625f0bab1" x="76.155625" y="267.919676" style="fill: #1f77b4; stroke: #1f77b4"/>
     </g>
    </g>
    <g id="text_15">
     <text style="font-size: 13px; font-family: 'DejaVu Sans'; text-anchor: start" x="99.555625" y="272.469676" transform="rotate(-0 99.555625 272.469676)">DG</text>
    </g>
    <g id="line2d_27">
     <path d="M 63.155625 287.001239 
L 76.155625 287.001239 
L 89.155625 287.001239 
" style="fill: none; stroke: #ff7f0e; stroke-width: 1.5; stroke-linecap: square"/>
     <g>
      <use xlink:href="#mcb5bd1db21" x="76.155625" y="287.001239" style="fill: #ff7f0e; stroke: #ff7f0e"/>
     </g>
    </g>
    <g id="text_16">
     <text style="font-size: 13px; font-family: 'DejaVu Sans'; text-anchor: start" x="99.555625" y="291.551239" transform="rotate(-0 99.555625 291.551239)">CA3</text>
    </g>
    <g id="line2d_28">
     <path d="M 63.155625 306.082801 
L 76.155625 306.082801 
L 89.155625 306.082801 
" style="fill: none; stroke: #2ca02c; stroke-width: 1.5; stroke-linecap: square"/>
     <g>
      <use xlink:href="#m8317b1883c" x="76.155625" y="306.082801" style="fill: #2ca02c; stroke: #2ca02c"/>
     </g>
    </g>
    <g id="text_17">
     <text style="font-size: 13px; font-family: 'DejaVu Sans'; text-anchor: start" x="99.555625" y="310.632801" transform="rotate(-0 99.555625 310.632801)">Decoder-1</text>
    </g>
   </g>
  </g>
 </g>
 <defs>
  <clipPath id="pd28fb046a6">
   <rect x="51.455625" y="25.053562" width="489.743895" height="299.982832"/>
  </clipPath>
 </defs>
</svg>
