<?xml version="1.0" encoding="utf-8" standalone="no"?>
<!DOCTYPE svg PUBLIC "-//W3C//DTD SVG 1.1//EN"
  "http://www.w3.org/Graphics/SVG/1.1/DTD/svg11.dtd">
<svg xmlns:xlink="http://www.w3.org/1999/xlink" width="627.59952pt" height="227.27952pt" viewBox="0 0 627.59952 227.27952" xmlns="http://www.w3.org/2000/svg" version="1.1">
 <metadata>
  <rdf:RDF xmlns:dc="http://purl.org/dc/elements/1.1/" xmlns:cc="http://creativecommons.org/ns#" xmlns:rdf="http://www.w3.org/1999/02/22-rdf-syntax-ns#">
   <cc:Work>
    <dc:type rdf:resource="http://purl.org/dc/dcmitype/StillImage"/>
    <dc:date>2026-09-28T01:46:19.708330</dc:date>
    <dc:format>image/svg+xml</dc:format>
    <dc:creator>
     <cc:Agent>
      <dc:title>Matplotlib v3.10.8, https://matplotlib.org/</dc:title>
     </cc:Agent>
    </dc:creator>
   </cc:Work>
  </rdf:RDF>
 </metadata>
 <defs>
  <style type="text/css">*{stroke-linejoin: round; stroke-linecap: butt}</style>
 </defs>
 <g id="figure_1">
  <g id="patch_1">
   <path d="M 0 227.27952 
L 627.59952 227.27952 
L 627.59952 -0 
L 0 -0 
z
" style="fill: #ffffff"/>
  </g>
  <g id="axes_1">
   <g id="legend_1">
    <g id="text_1">
     <text style="font-size: 12px; font-family: 'Times New Roman'; text-anchor: start" x="221.486947" y="82.566322" transform="rotate(-0 221.486947 82.566322)">Common replay with frozen outcomes</text>
    </g>
    <g id="PathCollection_1">
     <defs>
      <path id="meca17a1e6b" d="M 0 3.162278 
C 0.838646 3.162278 1.643056 2.82908 2.236068 2.236068 
C 2.82908 1.643056 3.162278 0.838646 3.162278 0 
C 3.162278 -0.838646 2.82908 -1.643056 2.236068 -2.236068 
C 1.643056 -2.82908 0.838646 -3.162278 0 -3.162278 
C -0.838646 -3.162278 -1.643056 -2.82908 -2.236068 -2.236068 
C -2.82908 -1.643056 -3.162278 -0.838646 -3.162278 0 
C -3.162278 0.838646 -2.82908 1.643056 -2.236068 2.236068 
C -1.643056 2.82908 -0.838646 3.162278 0 3.162278 
z
" style="stroke: #ffffff; stroke-opacity: 0.72; stroke-width: 0.5"/>
     </defs>
     <g>
      <use xlink:href="#meca17a1e6b" x="198.248197" y="96.405697" style="fill: #cc79a7; fill-opacity: 0.72; stroke: #ffffff; stroke-opacity: 0.72; stroke-width: 0.5"/>
     </g>
    </g>
    <g id="text_2">
     <text style="font-size: 12px; font-family: 'Times New Roman'; text-anchor: start" x="219.848197" y="99.555697" transform="rotate(-0 219.848197 99.555697)">CPU cadence</text>
    </g>
    <g id="PathCollection_2">
     <defs>
      <path id="m2774128094" d="M 0 3.162278 
C 0.838646 3.162278 1.643056 2.82908 2.236068 2.236068 
C 2.82908 1.643056 3.162278 0.838646 3.162278 0 
C 3.162278 -0.838646 2.82908 -1.643056 2.236068 -2.236068 
C 1.643056 -2.82908 0.838646 -3.162278 0 -3.162278 
C -0.838646 -3.162278 -1.643056 -2.82908 -2.236068 -2.236068 
C -2.82908 -1.643056 -3.162278 -0.838646 -3.162278 0 
C -3.162278 0.838646 -2.82908 1.643056 -2.236068 2.236068 
C -1.643056 2.82908 -0.838646 3.162278 0 3.162278 
z
" style="stroke: #ffffff; stroke-opacity: 0.72; stroke-width: 0.5"/>
     </defs>
     <g>
      <use xlink:href="#m2774128094" x="198.248197" y="113.372572" style="fill: #009e73; fill-opacity: 0.72; stroke: #ffffff; stroke-opacity: 0.72; stroke-width: 0.5"/>
     </g>
    </g>
    <g id="text_3">
     <text style="font-size: 12px; font-family: 'Times New Roman'; text-anchor: start" x="219.848197" y="116.522572" transform="rotate(-0 219.848197 116.522572)">DGC</text>
    </g>
    <g id="PathCollection_3">
     <defs>
      <path id="m69f0e9370a" d="M 0 3.162278 
C 0.838646 3.162278 1.643056 2.82908 2.236068 2.236068 
C 2.82908 1.643056 3.162278 0.838646 3.162278 0 
C 3.162278 -0.838646 2.82908 -1.643056 2.236068 -2.236068 
C 1.643056 -2.82908 0.838646 -3.162278 0 -3.162278 
C -0.838646 -3.162278 -1.643056 -2.82908 -2.236068 -2.236068 
C -2.82908 -1.643056 -3.162278 -0.838646 -3.162278 0 
C -3.162278 0.838646 -2.82908 1.643056 -2.236068 2.236068 
C -1.643056 2.82908 -0.838646 3.162278 0 3.162278 
z
" style="stroke: #ffffff; stroke-opacity: 0.72; stroke-width: 0.5"/>
     </defs>
     <g>
      <use xlink:href="#m69f0e9370a" x="198.248197" y="130.339447" style="fill: #d55e00; fill-opacity: 0.72; stroke: #ffffff; stroke-opacity: 0.72; stroke-width: 0.5"/>
     </g>
    </g>
    <g id="text_4">
     <text style="font-size: 12px; font-family: 'Times New Roman'; text-anchor: start" x="219.848197" y="133.489447" transform="rotate(-0 219.848197 133.489447)">DGP</text>
    </g>
    <g id="PathCollection_4">
     <defs>
      <path id="mc9da08e3a3" d="M -3.162278 3.162278 
L 3.162278 3.162278 
L 3.162278 -3.162278 
L -3.162278 -3.162278 
z
" style="stroke: #ffffff; stroke-opacity: 0.72; stroke-width: 0.5"/>
     </defs>
     <g>
      <use xlink:href="#mc9da08e3a3" x="198.248197" y="147.306322" style="fill: #56b4e9; fill-opacity: 0.72; stroke: #ffffff; stroke-opacity: 0.72; stroke-width: 0.5"/>
     </g>
    </g>
    <g id="text_5">
     <text style="font-size: 12px; font-family: 'Times New Roman'; text-anchor: start" x="219.848197" y="150.456322" transform="rotate(-0 219.848197 150.456322)">Five-cue transfer</text>
    </g>
    <g id="PathCollection_5">
     <defs>
      <path id="mc5ae3a4d7e" d="M -3.162278 3.162278 
L 3.162278 3.162278 
L 3.162278 -3.162278 
L -3.162278 -3.162278 
z
" style="stroke: #ffffff; stroke-opacity: 0.72; stroke-width: 0.5"/>
     </defs>
     <g>
      <use xlink:href="#mc5ae3a4d7e" x="337.476322" y="96.405697" style="fill: #222222; fill-opacity: 0.72; stroke: #ffffff; stroke-opacity: 0.72; stroke-width: 0.5"/>
     </g>
    </g>
    <g id="text_6">
     <text style="font-size: 12px; font-family: 'Times New Roman'; text-anchor: start" x="359.076322" y="99.555697" transform="rotate(-0 359.076322 99.555697)">Mature reference</text>
    </g>
    <g id="PathCollection_6">
     <defs>
      <path id="m7a91bdbe90" d="M 0 3.162278 
C 0.838646 3.162278 1.643056 2.82908 2.236068 2.236068 
C 2.82908 1.643056 3.162278 0.838646 3.162278 0 
C 3.162278 -0.838646 2.82908 -1.643056 2.236068 -2.236068 
C 1.643056 -2.82908 0.838646 -3.162278 0 -3.162278 
C -0.838646 -3.162278 -1.643056 -2.82908 -2.236068 -2.236068 
C -2.82908 -1.643056 -3.162278 -0.838646 -3.162278 0 
C -3.162278 0.838646 -2.82908 1.643056 -2.236068 2.236068 
C -1.643056 2.82908 -0.838646 3.162278 0 3.162278 
z
" style="stroke: #ffffff; stroke-opacity: 0.72; stroke-width: 0.5"/>
     </defs>
     <g>
      <use xlink:href="#m7a91bdbe90" x="337.476322" y="113.372572" style="fill: #882255; fill-opacity: 0.72; stroke: #ffffff; stroke-opacity: 0.72; stroke-width: 0.5"/>
     </g>
    </g>
    <g id="text_7">
     <text style="font-size: 12px; font-family: 'Times New Roman'; text-anchor: start" x="359.076322" y="116.522572" transform="rotate(-0 359.076322 116.522572)">Saturday</text>
    </g>
    <g id="line2d_1">
     <defs>
      <path id="m420d1eaed3" d="M 0 3 
C 0.795609 3 1.55874 2.683901 2.12132 2.12132 
C 2.683901 1.55874 3 0.795609 3 0 
C 3 -0.795609 2.683901 -1.55874 2.12132 -2.12132 
C 1.55874 -2.683901 0.795609 -3 0 -3 
C -0.795609 -3 -1.55874 -2.683901 -2.12132 -2.12132 
C -2.683901 -1.55874 -3 -0.795609 -3 0 
C -3 0.795609 -2.683901 1.55874 -2.12132 2.12132 
C -1.55874 2.683901 -0.795609 3 0 3 
z
" style="stroke: #777777"/>
     </defs>
     <g>
      <use xlink:href="#m420d1eaed3" x="337.476322" y="129.311947" style="fill: #777777; stroke: #777777"/>
     </g>
    </g>
    <g id="text_8">
     <text style="font-size: 12px; font-family: 'Times New Roman'; text-anchor: start" x="359.076322" y="133.511947" transform="rotate(-0 359.076322 133.511947)">DG 16</text>
    </g>
    <g id="line2d_2">
     <defs>
      <path id="m8195ad62bf" d="M -3 3 
L 3 3 
L 3 -3 
L -3 -3 
z
" style="stroke: #777777; stroke-linejoin: miter"/>
     </defs>
     <g>
      <use xlink:href="#m8195ad62bf" x="337.476322" y="146.278822" style="fill: #777777; stroke: #777777; stroke-linejoin: miter"/>
     </g>
    </g>
    <g id="text_9">
     <text style="font-size: 12px; font-family: 'Times New Roman'; text-anchor: start" x="359.076322" y="150.478822" transform="rotate(-0 359.076322 150.478822)">DG 64</text>
    </g>
   </g>
  </g>
 </g>
</svg>
